<?xml version="1.0" encoding="UTF-8" standalone="no"?>
<!-- Created with Inkscape (http://www.inkscape.org/) -->

<svg
   width="103.81915mm"
   height="59.181946mm"
   viewBox="0 0 103.81915 59.181946"
   version="1.1"
   id="svg5"
   xml:space="preserve"
   inkscape:version="1.2.2 (732a01da63, 2022-12-09)"
   sodipodi:docname="baslac.svg"
   xmlns:inkscape="http://www.inkscape.org/namespaces/inkscape"
   xmlns:sodipodi="http://sodipodi.sourceforge.net/DTD/sodipodi-0.dtd"
   xmlns="http://www.w3.org/2000/svg"
   xmlns:svg="http://www.w3.org/2000/svg"><sodipodi:namedview
     id="namedview7"
     pagecolor="#ffffff"
     bordercolor="#000000"
     borderopacity="0.25"
     inkscape:showpageshadow="2"
     inkscape:pageopacity="0.0"
     inkscape:pagecheckerboard="0"
     inkscape:deskcolor="#d1d1d1"
     inkscape:document-units="mm"
     showgrid="false"
     inkscape:zoom="0.74564394"
     inkscape:cx="164.28753"
     inkscape:cy="305.77597"
     inkscape:window-width="1920"
     inkscape:window-height="1017"
     inkscape:window-x="-8"
     inkscape:window-y="-8"
     inkscape:window-maximized="1"
     inkscape:current-layer="layer1" /><defs
     id="defs2" /><g
     inkscape:label="Calque 1"
     inkscape:groupmode="layer"
     id="layer1"
     transform="translate(-24.758889,-84.411175)"><path
       style="fill:#681536;stroke-width:0.352778;fill-opacity:1"
       d="m 36.719712,124.99143 c -1.730172,-1.66766 -1.790804,-1.79151 -1.674524,-3.42021 0.119374,-1.67203 0.107885,-1.69255 -1.087146,-1.94182 -0.664287,-0.13857 -1.556943,-0.11919 -1.983679,0.0431 -1.105002,0.42012 -1.571027,-0.21433 -1.571027,-2.13881 0,-2.04722 0.570359,-2.5972 3.26429,-3.14767 1.318487,-0.26941 2.152784,-0.64494 2.381251,-1.07183 0.590245,-1.10289 0.403842,-1.40907 -0.857842,-1.40907 -2.154884,0 -2.869687,-1.45145 -1.709955,-3.47216 0.580936,-1.01222 0.578477,-1.09286 -0.05468,-1.79248 -1.172636,-1.29575 -2.307517,-0.9673 -3.972806,1.14977 -0.921074,1.17096 -2.063908,1.69937 -3.108381,1.43722 -0.785794,-0.19722 -0.871975,-0.36307 -0.69189,-1.33145 0.122127,-0.65673 -0.01779,-1.63908 -0.344363,-2.41776 -0.302539,-0.72137 -0.550071,-1.9639 -0.550071,-2.76116 0,-3.825386 5.518359,-5.106805 8.963958,-2.08153 1.333499,1.17083 2.136278,2.89148 2.509166,5.37807 0.244831,1.63265 0.643943,2.31595 1.008346,1.72633 0.100651,-0.16285 0.02798,-1.39575 -0.161496,-2.73978 -0.245708,-1.74291 -0.8476,-3.4597 -2.098902,-5.986718 -2.116274,-4.27384 -2.263133,-5.832767 -0.781387,-8.29449 1.48257,-2.463093 4.121034,-6.316816 4.318649,-6.307791 0.09701,0.0044 1.259754,1.599854 2.583867,3.545386 2.343537,3.443381 3.454153,6.261629 2.320669,5.888823 -0.272147,-0.08951 -0.545478,-0.591539 -0.6074,-1.115621 -0.132546,-1.121809 -3.580262,-6.401047 -4.180336,-6.401047 -0.226801,0 -0.962704,0.720756 -1.63534,1.60168 -3.135566,4.106527 -3.461628,6.281532 -1.519755,10.137576 1.442605,2.864632 2.332739,5.737262 2.332739,7.528202 0,0.72826 0.154821,1.73132 0.344046,2.22902 0.342408,0.9006 0.335169,0.90491 -1.520073,0.90491 -2.251655,0 -3.434234,0.68799 -2.844818,1.65504 0.28774,0.47209 0.975857,0.68389 2.645834,0.81441 1.692492,0.13227 2.115872,0.26462 1.692846,0.52916 -0.31026,0.19403 -0.788103,0.82903 -1.061875,1.41112 -0.396114,0.8422 -0.938785,1.20241 -2.657344,1.76388 -2.775591,0.90682 -3.365456,1.41653 -3.231214,2.79218 0.08337,0.85436 0.257916,1.06947 0.811764,1.00045 0.388056,-0.0484 1.607696,0.10109 2.710311,0.33209 1.740735,0.36471 1.961419,0.501 1.675695,1.03488 -0.762317,1.4244 -0.381608,2.93634 1.103398,4.382 l 1.432458,1.39452 1.389764,-1.48565 c 1.448868,-1.54882 1.676573,-2.47656 1.027116,-4.18476 -0.199456,-0.52461 -0.318519,-0.99189 -0.264583,-1.0384 0.05393,-0.0465 1.346693,-0.1985 2.872795,-0.33776 2.250308,-0.20535 2.744533,-0.16345 2.614959,0.22168 -0.08787,0.26119 -0.542753,0.48742 -1.010842,0.50274 -3.466466,0.11345 -3.257334,0.004 -3.0075,1.56687 0.284718,1.78053 -0.292699,2.96124 -2.196149,4.49069 -0.784785,0.63059 -1.516092,1.14653 -1.625127,1.14653 -0.109035,0 -1.006074,-0.77864 -1.993419,-1.73031 z m -8.607424,-16.88411 c 0.195131,-0.14255 0.798523,-0.8545 1.34087,-1.5821 0.833882,-1.11873 1.187507,-1.32119 2.291048,-1.3117 1.528325,0.0132 2.373329,0.56363 2.869863,1.86962 0.472972,1.244 1.080934,1.20101 1.080934,-0.0764 0,-1.70342 -1.09443,-4.5296 -2.186703,-5.64681 -2.0367,-2.083184 -5.164679,-2.311791 -7.040588,-0.51456 -1.15842,1.10984 -1.310871,2.58509 -0.474098,4.58777 0.291042,0.69656 0.529167,1.64396 0.529167,2.10533 0,0.843 0.815001,1.13468 1.589507,0.56888 z"
       id="path535" /><g
       id="g561"
       style="fill:#313771;fill-opacity:1"><path
         style="fill:#313771;fill-opacity:1;stroke-width:0.352778"
         d="m 92.765678,114.1777 c -1.01832,-0.55263 -1.68456,-1.51191 -1.68456,-2.42551 0,-0.87075 1.61738,-0.6668 2.61376,0.32958 1.00321,1.00322 2.36595,1.14351 3.18187,0.32758 1.06267,-1.06266 0.54428,-1.71381 -2.08441,-2.6182 -2.79592,-0.96194 -3.358442,-1.52955 -3.358442,-3.38882 0,-2.0457 1.078062,-3.29154 3.080702,-3.56015 1.89241,-0.25383 3.5009,0.39724 4.16788,1.68704 0.72935,1.41042 0.64383,1.73172 -0.46094,1.73172 -0.59142,0 -1.14641,-0.27691 -1.41411,-0.70556 -0.56325,-0.90191 -2.81561,-0.99381 -3.14769,-0.12843 -0.35768,0.93209 0.37045,1.66695 2.21847,2.23898 0.95111,0.29441 2.07358,0.73241 2.49438,0.97333 1.680502,0.96216 1.28923,4.58807 -0.60056,5.56532 -1.28294,0.66343 -3.7588,0.65014 -5.00635,-0.0269 z"
         id="path547" /><path
         style="fill:#313771;fill-opacity:1;stroke-width:0.352778"
         d="m 86.495007,114.02205 c -0.627162,-0.62716 -0.705556,-1.17592 -0.705556,-4.93889 0,-3.99814 -0.0392,-4.23333 -0.705556,-4.23333 -0.517408,0 -0.705555,-0.23519 -0.705555,-0.88195 0,-0.64675 0.188147,-0.88194 0.705555,-0.88194 0.601028,0 0.705556,-0.23519 0.705556,-1.5875 0,-1.52181 0.04295,-1.587501 1.038049,-1.587501 0.969034,0 1.045263,0.09969 1.146528,1.499311 0.09018,1.24637 0.242386,1.51832 0.902229,1.61203 1.204263,0.17104 1.12432,1.82755 -0.08819,1.82755 h -0.881949 v 3.7129 c 0,3.63582 0.01831,3.71986 0.881944,4.04821 0.619319,0.23547 0.881945,0.60054 0.881945,1.22599 0,0.78273 -0.149641,0.89068 -1.234722,0.89068 -0.764354,0 -1.503504,-0.26878 -1.940278,-0.70556 z"
         id="path545" /><path
         style="fill:#313771;fill-opacity:1;stroke-width:0.352778"
         d="m 75.381003,114.02005 c -0.818885,-0.90486 -1.185767,-3.17326 -1.21219,-7.49487 l -0.02103,-3.43958 h 1.058333 1.058333 v 3.97845 c 0,3.02985 0.130941,4.16539 0.54917,4.7625 0.627076,0.89528 1.82131,1.01544 2.822988,0.28404 0.599676,-0.43787 0.69942,-1.0298 0.802527,-4.7625 l 0.117739,-4.26249 h 1.028789 1.028788 v 5.64445 5.64444 h -1.058334 c -0.853327,0 -1.058333,-0.14946 -1.058333,-0.77156 0,-0.75163 -0.02554,-0.74707 -0.989443,0.17639 -1.232687,1.18099 -3.173945,1.29422 -4.127337,0.24073 z"
         id="path543" /><path
         style="fill:#313771;fill-opacity:1;stroke-width:0.352778"
         d="m 64.764342,114.05803 c -1.993103,-1.21537 -2.925276,-5.54903 -1.774525,-8.24973 0.873566,-2.05017 2.143291,-2.89909 4.336158,-2.89909 1.737653,0 2.046263,0.11804 2.948418,1.12773 3.403014,3.80863 1.516024,10.69295 -2.929859,10.68901 -0.83506,-7.1e-4 -1.966313,-0.29358 -2.580192,-0.66792 z m 4.066346,-2.12756 c 0.801953,-0.80195 1.226799,-3.29903 0.810536,-4.76403 -0.407416,-1.43387 -1.876239,-2.47375 -3.070702,-2.17396 -2.01089,0.5047 -2.65865,5.55086 -0.895787,6.97833 1.025288,0.83024 2.301698,0.81392 3.155953,-0.0403 z"
         id="path541" /><path
         style="fill:#313771;fill-opacity:1;stroke-width:0.352778"
         d="m 54.080679,114.15203 c -1.158819,-0.81167 -1.805443,-2.59382 -1.803152,-4.96965 0.0027,-2.83016 0.539737,-4.48504 1.79931,-5.5449 1.589602,-1.33757 3.490176,-1.24689 5.070678,0.24191 0.669432,0.63059 1.319309,1.58309 1.444175,2.11666 0.210622,0.90005 0.147253,0.97014 -0.877115,0.97014 -0.838204,0 -1.201854,-0.21446 -1.509835,-0.8904 -0.567945,-1.2465 -1.914482,-1.5172 -2.85728,-0.5744 -0.563141,0.56314 -0.773653,1.28329 -0.864303,2.95672 -0.152252,2.81062 0.383994,3.93508 1.94902,4.08694 0.959788,0.0931 1.239833,-0.0612 1.755844,-0.96791 0.590875,-1.03821 1.912422,-1.48342 2.341672,-0.78888 0.333406,0.53947 -1.208813,3.1249 -2.108546,3.53484 -1.274875,0.58088 -3.385693,0.49768 -4.340468,-0.17107 z"
         id="path539" /><path
         style="fill:#313771;fill-opacity:1;stroke-width:0.352778"
         d="m 41.909142,113.9906 c -1.006985,-0.7921 -1.980805,-2.41581 -1.980805,-3.30272 0,-0.37225 0.337704,-0.54669 1.058333,-0.54669 0.582084,0 1.058334,0.16597 1.058334,0.36881 0,0.20285 0.389659,0.75847 0.865909,1.23472 1.697031,1.69704 5.131313,0.85198 5.131313,-1.26262 0,-1.27032 -0.780874,-1.82413 -3.953846,-2.80416 -2.955884,-0.91298 -3.807265,-1.87558 -3.807265,-4.30462 0,-0.95361 0.240812,-2.19951 0.535138,-2.76868 1.581843,-3.058943 7.126088,-2.707862 8.481924,0.53711 0.715387,1.71216 0.648736,1.94389 -0.559127,1.94389 -0.815626,0 -1.146643,-0.20931 -1.404784,-0.88827 -0.718498,-1.8898 -3.968071,-1.94054 -4.864309,-0.076 -0.734019,1.52708 -0.08987,2.19402 3.16654,3.2785 3.725494,1.2407 4.522396,2.01427 4.522396,4.38999 0,3.45142 -1.57301,4.9374 -5.226573,4.9374 -1.581844,0 -2.313173,-0.17821 -3.023178,-0.73671 z"
         id="path537" /><path
         style="fill:#313771;fill-opacity:1;stroke-width:0.352778"
         d="m 86.495007,125.66341 v -7.76111 h 0.881944 0.881945 v 7.76111 7.76112 h -0.881945 -0.881944 z"
         id="path533" /><path
         style="fill:#313771;fill-opacity:1;stroke-width:0.352778"
         d="m 52.628338,125.66341 v -7.76111 h 3.511179 c 1.970878,0 3.916963,0.18489 4.436178,0.42146 1.904418,0.86771 2.549183,3.98843 1.182906,5.72537 l -0.747518,0.95031 0.788377,0.83919 c 0.972619,1.03531 1.327552,3.61748 0.704123,5.12256 -0.86669,2.09238 -1.776599,2.46334 -6.042265,2.46334 h -3.83298 z m 7.382729,4.71493 c 0.96018,-1.22067 0.923103,-2.08561 -0.134751,-3.14346 -0.728381,-0.72838 -1.204629,-0.86591 -2.998609,-0.86591 h -2.132702 v 2.46944 2.46945 h 2.267451 c 2.02938,0 2.344219,-0.0976 2.998611,-0.92952 z m -0.327173,-6.83159 c 0.829384,-0.82939 0.898881,-1.71743 0.208315,-2.66183 -0.399729,-0.54667 -0.935895,-0.68096 -2.734029,-0.68479 l -2.236787,-0.005 -0.105799,2.02847 -0.105799,2.02847 h 2.134271 c 1.663902,0 2.289769,-0.1555 2.839828,-0.70555 z"
         id="path531" /><path
         style="fill:#313771;fill-opacity:1;stroke-width:0.352778"
         d="m 103.42834,133.32622 c -1.39828,-0.69867 -2.11549,-2.54447 -2.11612,-5.44597 -7e-4,-2.94597 0.65471,-4.64883 2.12283,-5.51607 1.26312,-0.74614 3.12455,-0.74295 4.23632,0.007 0.47974,0.32372 0.90686,0.60968 0.94917,0.63548 0.0423,0.0258 0.32225,0.63407 0.62209,1.3517 l 0.54518,1.3048 h -1.18283 c -0.91934,0 -1.27234,-0.19646 -1.58467,-0.88194 -0.39973,-0.87731 -1.55334,-1.17237 -2.39263,-0.61196 -1.2607,0.84179 -1.68592,5.22833 -0.65017,6.70707 0.888,1.2678 2.47654,1.00769 3.29099,-0.53886 0.48986,-0.93021 2.15707,-1.12117 2.15707,-0.24707 0,0.86342 -0.98006,2.53348 -1.84037,3.13607 -0.94238,0.66007 -2.93932,0.70787 -4.15686,0.0995 z"
         id="path529" /><path
         style="fill:#313771;fill-opacity:1;stroke-width:0.352778"
         d="m 91.790798,133.14602 c -0.521815,-0.42253 -0.83886,-1.15698 -0.958801,-2.2211 -0.240171,-2.1308 0.969761,-3.67405 3.165681,-4.03778 2.22027,-0.36777 2.78783,-0.76553 2.66083,-1.86481 -0.0939,-0.81292 -0.29372,-0.96173 -1.41655,-1.05497 -1.01052,-0.0839 -1.4101,0.0562 -1.76055,0.61736 -0.56532,0.90522 -2.602619,1.05647 -2.261645,0.1679 0.117775,-0.30691 0.214133,-0.71137 0.214133,-0.89879 0,-0.18743 0.420052,-0.73007 0.933452,-1.20587 1.67349,-1.55093 5.88615,-0.88401 6.27492,0.9934 0.0897,0.43303 0.22636,2.81139 0.30375,5.28525 l 0.14071,4.49792 h -1.00419 c -0.65743,0 -1.0042,-0.18273 -1.0042,-0.52917 0,-0.73166 -0.59293,-0.66158 -1.49238,0.17639 -0.94406,0.87953 -2.75691,0.915 -3.79516,0.0743 z m 4.22921,-1.83816 c 0.47037,-0.47037 0.70555,-1.17593 0.70555,-2.11667 0,-0.77611 -0.0594,-1.41111 -0.13203,-1.41111 -0.56778,0 -3.24671,1.1675 -3.46414,1.50969 -1.25015,1.9676 1.21798,3.69073 2.89062,2.01809 z"
         id="path527" /><path
         style="fill:#313771;fill-opacity:1;stroke-width:0.352778"
         d="m 77.322784,133.34634 c -0.48507,-0.25344 -1.160509,-1.01421 -1.500978,-1.69061 l -0.619033,-1.22982 1.024283,-0.10788 c 0.7239,-0.0762 1.288697,0.15654 1.925913,0.79375 1.378006,1.37801 3.403148,0.97959 3.403148,-0.66951 0,-0.71978 -0.324093,-0.94863 -2.252063,-1.59021 -3.202185,-1.06562 -4.170331,-2.41894 -3.40009,-4.75279 0.514206,-1.55806 1.71649,-2.31641 3.672396,-2.31641 1.177417,0 1.845727,0.22961 2.658244,0.9133 1.383119,1.16382 1.502894,2.61448 0.215869,2.61448 -0.49832,0 -1.025275,-0.29101 -1.234345,-0.68167 -0.954991,-1.78441 -4.030144,-1.00464 -3.321435,0.84223 0.108342,0.28234 1.095548,0.77223 2.193788,1.08866 2.712533,0.78154 3.584303,1.6462 3.584303,3.5551 0,2.27236 -1.107482,3.3795 -3.556198,3.55508 -1.150013,0.0825 -2.263298,-0.0465 -2.793802,-0.3237 z"
         id="path525" /><path
         style="fill:#313771;fill-opacity:1;stroke-width:0.352778"
         d="m 65.98478,133.10292 c -0.674606,-0.54627 -0.83283,-1.01002 -0.83283,-2.44103 0,-2.22154 0.997348,-3.4279 3.125276,-3.78021 2.187116,-0.36212 2.755064,-0.76387 2.628505,-1.85935 -0.09391,-0.81292 -0.293726,-0.96173 -1.416548,-1.05497 -1.010528,-0.0839 -1.410105,0.0562 -1.760555,0.61736 -0.565319,0.90522 -2.602618,1.05647 -2.261644,0.1679 0.117775,-0.30691 0.214132,-0.71137 0.214132,-0.89879 0,-0.18743 0.420056,-0.73007 0.933458,-1.20587 1.550324,-1.43679 5.604707,-0.95835 6.255738,0.7382 0.120526,0.31409 0.219138,2.294 0.219138,4.39981 0,2.1058 0.15482,4.23595 0.344047,4.73365 0.328404,0.86376 0.288307,0.90491 -0.881945,0.90491 -0.854583,0 -1.225991,-0.16031 -1.225991,-0.52917 0,-0.71648 -0.437338,-0.6653 -1.507373,0.17639 -1.132216,0.8906 -2.755749,0.9038 -3.833408,0.0311 z m 4.282448,-1.79506 c 0.470369,-0.47037 0.705555,-1.17593 0.705555,-2.11667 0,-0.77611 -0.0511,-1.41111 -0.113545,-1.41111 -0.06245,0 -0.856989,0.25332 -1.765642,0.56293 -1.182381,0.40287 -1.710274,0.79473 -1.85673,1.37825 -0.49555,1.97443 1.56414,3.05282 3.030362,1.5866 z"
         id="path523" /></g><path
       style="fill:#681536;stroke-width:0.352778;fill-opacity:1"
       d="m 113.42204,141.62661 c -0.92859,-1.89441 -1.00282,-2.37353 -1.12316,-7.2494 -0.11216,-4.54473 -0.0508,-5.30718 0.47376,-5.8868 0.59477,-0.65723 0.4406,-1.61815 -0.19645,-1.22443 -0.19645,0.12141 -0.3284,-1.69764 -0.3284,-4.52713 0,-2.60155 -0.10267,-5.94467 -0.22816,-7.42915 -0.19976,-2.36324 -0.15587,-2.69906 0.35278,-2.69906 0.67451,0 0.65608,-0.20016 0.71457,7.76111 0.0235,3.20146 0.17118,6.01927 0.32816,6.2618 0.20866,0.3224 1.79752,0.44098 5.90902,0.44098 4.91234,0 5.62363,0.0712 5.62363,0.56265 0,0.49528 -0.62917,0.54808 -5.25449,0.44097 -4.8103,-0.11139 -5.31868,-0.0636 -6.01392,0.56547 -0.48277,0.43682 -0.72122,1.01514 -0.65454,1.5875 0.0936,0.80355 0.24136,0.88846 1.37421,0.78974 1.13881,-0.0992 1.59219,0.16695 4.40972,2.58892 4.65005,3.99723 6.47594,4.76949 7.90291,3.34252 0.81827,-0.81827 0.92707,-3.01155 0.33149,-6.6824 -0.29666,-1.82842 -0.24894,-2.97619 0.24414,-5.87161 0.57818,-3.39519 0.57878,-3.65098 0.0105,-4.51829 -1.18716,-1.81184 -3.00753,-1.07537 -7.2889,2.94888 -3.09773,2.91169 -5.32464,3.66559 -5.57766,1.88827 -0.15291,-1.07408 0.57926,-2.35199 3.3143,-5.78473 2.40693,-3.02092 4.01757,-5.91274 4.0238,-7.2245 0.002,-0.39948 -0.22092,-1.03316 -0.49515,-1.40818 -0.4648,-0.63567 -1.00861,-0.68354 -8.02569,-0.70645 l -7.52711,-0.0246 -0.97013,0.96466 c -1.23754,1.23054 -1.26442,2.78236 -0.084,4.8473 1.01893,1.78236 1.0266,1.81608 0.41349,1.81608 -0.56031,0 -1.83817,-2.21858 -2.16328,-3.75582 -0.29428,-1.39151 0.50751,-3.41403 1.62788,-4.10631 0.65775,-0.40644 2.39348,-0.50059 8.6355,-0.46842 7.15469,0.0369 7.87479,0.0968 8.55486,0.71231 0.92552,0.83759 1.00586,3.26023 0.16256,4.90173 -0.319,0.62095 -1.99387,3.01002 -3.72193,5.30903 -1.72806,2.29902 -3.08108,4.36277 -3.00672,4.58612 0.33332,1.00118 1.42917,0.4061 4.44121,-2.41176 3.34923,-3.13327 4.29369,-3.70854 6.08863,-3.70854 2.64328,0 3.38531,1.62405 2.5563,5.59484 -0.552,2.64401 -0.54654,3.28083 0.0853,9.93847 0.20389,2.14834 0.15407,2.38091 -0.73674,3.43958 -1.83856,2.18501 -4.69585,1.22965 -9.66786,-3.23254 -1.43085,-1.28414 -2.78957,-2.33479 -3.01938,-2.33479 -0.2298,0 -0.72598,0.22614 -1.10261,0.50253 -1.33042,0.97635 -0.66182,6.66278 1.05739,8.99303 0.67556,0.91568 0.79533,1.33656 0.5244,1.8428 -0.55689,1.04055 -0.91277,0.79316 -1.97427,-1.37239 z"
       id="path439" /></g></svg>
